<svg xmlns="http://www.w3.org/2000/svg" width="1200" height="630" viewBox="0 0 1200 630"><defs><linearGradient id="bg" x1="0" y1="0" x2="1" y2="1"><stop stop-color="#080b10"/><stop offset="1" stop-color="#101827"/></linearGradient><linearGradient id="a" x1="0" y1="0" x2="1" y2="0"><stop stop-color="#7dd3fc"/><stop offset="1" stop-color="#a78bfa"/></linearGradient></defs><rect width="1200" height="630" fill="url(#bg)"/><circle cx="1060" cy="80" r="280" fill="#7dd3fc" opacity=".055"/><circle cx="1040" cy="610" r="340" fill="#a78bfa" opacity=".05"/><g transform="translate(88 92)"><rect width="86" height="86" rx="20" fill="#080b10" stroke="#243244"/><path d="M21 21h21c16 0 25 8 25 22S58 65 42 65H21V21Zm14 12v20h7c7 0 11-3 11-10S49 33 42 33h-7Z" fill="url(#a)"/><circle cx="67" cy="21" r="5" fill="#f8fafc"/></g><text x="88" y="250" fill="#f8fafc" font-family="Arial,sans-serif" font-size="34" font-weight="700" letter-spacing="7">DROP FIVE NEWS</text><text x="88" y="370" fill="#f8fafc" font-family="Georgia,serif" font-size="68" font-weight="700">Notícias essenciais.</text><text x="88" y="448" fill="url(#a)" font-family="Georgia,serif" font-size="68" font-style="italic">Contexto para o seu dia.</text><text x="90" y="535" fill="#94a3b8" font-family="Arial,sans-serif" font-size="24" letter-spacing="1">PODCAST DIÁRIO · BRASIL · MUNDO · TECNOLOGIA</text></svg>
